<svg width="41" height="41" viewBox="0 0 41 41" fill="none" xmlns="http://www.w3.org/2000/svg">
<mask id="mask0_69_140" style="mask-type:alpha" maskUnits="userSpaceOnUse" x="0" y="0" width="41" height="41">
<rect x="0.5" y="0.5" width="40" height="40" fill="#D9D9D9"/>
</mask>
<g mask="url(#mask0_69_140)">
<path d="M0.502856 1.92816C0.502856 1.54939 0.653326 1.18613 0.921165 0.918299C1.189 0.650466 1.55227 0.5 1.93105 0.5H3.18215C5.25874 0.5 6.45271 1.85104 7.14396 3.19923C7.61526 4.12182 7.95517 5.24721 8.23795 6.22408H37.6445C38.0858 6.22421 38.5211 6.32662 38.9163 6.52326C39.3114 6.7199 39.6556 7.00544 39.9218 7.35745C40.1881 7.70947 40.3691 8.11839 40.4507 8.55213C40.5323 8.98586 40.5124 9.43262 40.3923 9.85733L36.1191 24.9244C35.7792 26.1198 35.0588 27.1718 34.067 27.9208C33.0752 28.6697 31.8663 29.0749 30.6235 29.0747H16.1159C14.8627 29.0751 13.6442 28.6635 12.648 27.9032C11.6518 27.1429 10.9333 26.0762 10.603 24.8673L8.76924 18.1407C8.75873 18.1105 8.7492 18.08 8.74068 18.0493L5.79574 8.0607L5.5101 7.09812C5.22446 6.10983 4.9731 5.23579 4.59606 4.50171C4.14189 3.61625 3.72486 3.35918 3.17929 3.35918H1.92819C1.54941 3.35918 1.18615 3.20872 0.918308 2.94088C0.65047 2.67305 0.5 2.30979 0.5 1.93102L0.502856 1.92816ZM16.2216 40.5C17.3579 40.5 18.4477 40.0486 19.2512 39.2451C20.0547 38.4416 20.5061 37.3518 20.5061 36.2155C20.5061 35.0792 20.0547 33.9894 19.2512 33.1859C18.4477 32.3824 17.3579 31.931 16.2216 31.931C15.0852 31.931 13.9954 32.3824 13.1919 33.1859C12.3884 33.9894 11.937 35.0792 11.937 36.2155C11.937 37.3518 12.3884 38.4416 13.1919 39.2451C13.9954 40.0486 15.0852 40.5 16.2216 40.5ZM30.5035 40.5C31.6398 40.5 32.7296 40.0486 33.5331 39.2451C34.3367 38.4416 34.7881 37.3518 34.7881 36.2155C34.7881 35.0792 34.3367 33.9894 33.5331 33.1859C32.7296 32.3824 31.6398 31.931 30.5035 31.931C29.3672 31.931 28.2773 32.3824 27.4738 33.1859C26.6703 33.9894 26.2189 35.0792 26.2189 36.2155C26.2189 37.3518 26.6703 38.4416 27.4738 39.2451C28.2773 40.0486 29.3672 40.5 30.5035 40.5Z" fill="#181610"/>
</g>
</svg>
