<svg width="44" height="44" viewBox="0 0 44 44" fill="none" xmlns="http://www.w3.org/2000/svg">
<path d="M21.2929 22L6.44774 36.8452C2.76239 32.9854 0.5 27.7574 0.5 22C0.5 16.2426 2.76239 11.0146 6.44774 7.15484L21.2929 22ZM37.5523 36.8452L22.7071 22L37.5523 7.15484C41.2376 11.0146 43.5 16.2426 43.5 22C43.5 27.7574 41.2376 32.9854 37.5523 36.8452ZM36.8452 6.44774L22 21.2929L7.15484 6.44774C11.0146 2.76239 16.2426 0.5 22 0.5C27.7574 0.5 32.9854 2.76239 36.8452 6.44774ZM22 22.7071L36.8452 37.5523C32.9854 41.2376 27.7574 43.5 22 43.5C16.2426 43.5 11.0146 41.2376 7.15484 37.5523L22 22.7071Z" fill="#181610" stroke="#181610"/>
<g clip-path="url(#clip0_11_170)">
<path d="M24.1818 24.1H27.8182L29.2727 18.5H24.1818V15.7C24.1818 14.258 24.1818 12.9 27.0909 12.9H29.2727V8.196C28.7985 8.1358 27.008 8 25.1171 8C21.168 8 18.3636 10.3198 18.3636 14.58V18.5H14V24.1H18.3636V36H24.1818V24.1Z" fill="#FFFFF9"/>
</g>
<defs>
<clipPath id="clip0_11_170">
<rect width="16" height="28" fill="white" transform="translate(14 8)"/>
</clipPath>
</defs>
</svg>
