<svg width="44" height="44" viewBox="0 0 44 44" fill="none" xmlns="http://www.w3.org/2000/svg">
<path d="M43.5 22C43.5 27.9372 41.0941 33.3115 37.2028 37.2028C33.3115 41.0941 27.9372 43.5 22 43.5C16.0628 43.5 10.6885 41.0941 6.7972 37.2028C2.90592 33.3115 0.5 27.9372 0.5 22C0.5 16.0628 2.90592 10.6885 6.7972 6.7972C10.6885 2.90592 16.0628 0.5 22 0.5C27.9372 0.5 33.3115 2.90592 37.2028 6.7972C41.0941 10.6885 43.5 16.0628 43.5 22Z" fill="#181610" stroke="#181610"/>
<g clip-path="url(#clip0_11_169)">
<path d="M21.9999 27.9517C23.5784 27.9517 25.0922 27.3247 26.2084 26.2085C27.3245 25.0924 27.9516 23.5785 27.9516 22C27.9516 20.4215 27.3245 18.9077 26.2084 17.7915C25.0922 16.6754 23.5784 16.0483 21.9999 16.0483C20.4214 16.0483 18.9076 16.6754 17.7914 17.7915C16.6753 18.9077 16.0482 20.4215 16.0482 22C16.0482 23.5785 16.6753 25.0924 17.7914 26.2085C18.9076 27.3247 20.4214 27.9517 21.9999 27.9517Z" stroke="#FFFFF9" stroke-width="1.5" stroke-linecap="round" stroke-linejoin="round"/>
<path d="M8.60864 27.9516V16.0483C8.60864 14.0751 9.39246 12.1829 10.7877 10.7877C12.1829 9.39246 14.0751 8.60864 16.0483 8.60864H27.9516C29.9247 8.60864 31.817 9.39246 33.2122 10.7877C34.6074 12.1829 35.3913 14.0751 35.3913 16.0483V27.9516C35.3913 29.9247 34.6074 31.817 33.2122 33.2122C31.817 34.6074 29.9247 35.3913 27.9516 35.3913H16.0483C14.0751 35.3913 12.1829 34.6074 10.7877 33.2122C9.39246 31.817 8.60864 29.9247 8.60864 27.9516Z" stroke="#FFFFF9" stroke-width="1.5"/>
<path d="M30.1835 13.8313L30.1984 13.8149" stroke="#FFFFF9" stroke-width="1.5" stroke-linecap="round" stroke-linejoin="round"/>
</g>
<defs>
<clipPath id="clip0_11_169">
<rect width="28" height="28" fill="white" transform="translate(8 8)"/>
</clipPath>
</defs>
</svg>
