<svg width="41" height="41" viewBox="0 0 41 41" fill="none" xmlns="http://www.w3.org/2000/svg">
<mask id="mask0_69_139" style="mask-type:alpha" maskUnits="userSpaceOnUse" x="0" y="0" width="41" height="41">
<rect x="0.5" y="0.5" width="40" height="40" fill="#D9D9D9"/>
</mask>
<g mask="url(#mask0_69_139)">
<path d="M20.5 20.5C17.75 20.5 15.3958 19.5208 13.4375 17.5625C11.4792 15.6042 10.5 13.25 10.5 10.5C10.5 7.75 11.4792 5.39583 13.4375 3.4375C15.3958 1.47917 17.75 0.5 20.5 0.5C23.25 0.5 25.6042 1.47917 27.5625 3.4375C29.5208 5.39583 30.5 7.75 30.5 10.5C30.5 13.25 29.5208 15.6042 27.5625 17.5625C25.6042 19.5208 23.25 20.5 20.5 20.5ZM0.5 40.5V33.5C0.5 32.0833 0.865 30.7808 1.595 29.5925C2.325 28.4042 3.29333 27.4983 4.5 26.875C7.08333 25.5833 9.70833 24.6142 12.375 23.9675C15.0417 23.3208 17.75 22.9983 20.5 23C23.25 23 25.9583 23.3233 28.625 23.97C31.2917 24.6167 33.9167 25.585 36.5 26.875C37.7083 27.5 38.6775 28.4067 39.4075 29.595C40.1375 30.7833 40.5017 32.085 40.5 33.5V40.5H0.5Z" fill="#181610"/>
</g>
</svg>
