<svg width="10" height="12" viewBox="0 0 10 12" fill="none" xmlns="http://www.w3.org/2000/svg">
<g id="pepicons-pencil:arrow-spin" clip-path="url(#clip0_84_462)">
<g id="Group">
<path id="Vector" d="M1.03054 4.30084C1.09027 4.21311 1.1824 4.15269 1.28667 4.13289C1.39094 4.11309 1.49881 4.13552 1.58654 4.19524C1.67427 4.25497 1.73469 4.3471 1.75449 4.45137C1.7743 4.55564 1.75187 4.66351 1.69214 4.75124C1.19003 5.48985 0.949553 6.37525 1.00902 7.26639C1.06849 8.15752 1.42449 9.00312 2.02029 9.66846C2.61609 10.3338 3.41742 10.7806 4.29662 10.9377C5.17581 11.0948 6.08228 10.9531 6.87162 10.5352C7.66095 10.1174 8.28774 9.44737 8.65211 8.63196C9.01648 7.81655 9.09748 6.90266 8.88221 6.03587C8.66693 5.16909 8.16776 4.39929 7.46422 3.84911C6.76068 3.29894 5.89326 3.00004 5.00014 3.00004C4.89405 3.00004 4.79231 2.9579 4.7173 2.88288C4.64228 2.80787 4.60014 2.70613 4.60014 2.60004C4.60014 2.49396 4.64228 2.39221 4.7173 2.3172C4.79231 2.24218 4.89405 2.20004 5.00014 2.20004C6.0719 2.20014 7.11279 2.55892 7.95698 3.21922C8.80117 3.87953 9.40008 4.80336 9.65831 5.84355C9.91653 6.88373 9.81921 7.98041 9.38184 8.95886C8.94447 9.93731 8.19222 10.7412 7.24495 11.2426C6.29767 11.7439 5.20986 11.9137 4.15484 11.7251C3.09982 11.5365 2.13828 11.0002 1.42342 10.2016C0.708565 9.40311 0.281516 8.38831 0.210315 7.31893C0.139114 6.24954 0.427857 5.18709 1.03054 4.30084Z" fill="#181610"/>
<path id="Vector_2" d="M6.26792 4.78484C6.29767 4.82906 6.31827 4.87877 6.32853 4.93107C6.33879 4.98337 6.3385 5.03718 6.32767 5.08937C6.31684 5.14155 6.29569 5.19104 6.26547 5.23493C6.23525 5.27882 6.19656 5.31624 6.15167 5.34497C6.10679 5.3737 6.05662 5.39317 6.0041 5.40224C5.95159 5.41132 5.89779 5.4098 5.84587 5.39779C5.79394 5.38578 5.74495 5.36351 5.70175 5.3323C5.65855 5.30109 5.62203 5.26156 5.59432 5.21604L3.81272 2.43044C3.78298 2.38622 3.76237 2.3365 3.75211 2.2842C3.74185 2.23191 3.74214 2.17809 3.75297 2.12591C3.7638 2.07372 3.78495 2.02423 3.81518 1.98034C3.8454 1.93645 3.88409 1.89904 3.92897 1.8703C3.97386 1.84157 4.02403 1.8221 4.07655 1.81303C4.12906 1.80396 4.18286 1.80547 4.23478 1.81748C4.2867 1.82949 4.3357 1.85176 4.3789 1.88297C4.42209 1.91418 4.45862 1.95371 4.48632 1.99924L6.26792 4.78484Z" fill="#181610"/>
<path id="Vector_3" d="M6.69148 0.642496C6.78776 0.602767 6.89573 0.602157 6.99245 0.640792C7.08917 0.679427 7.167 0.754261 7.20941 0.849387C7.25182 0.944513 7.25545 1.05243 7.21953 1.15019C7.18362 1.24795 7.11099 1.32785 7.01708 1.3729L4.31308 2.5801C4.26507 2.60153 4.21331 2.61329 4.16075 2.61472C4.10819 2.61615 4.05587 2.60721 4.00677 2.58841C3.95766 2.56962 3.91274 2.54134 3.87457 2.50518C3.83639 2.46903 3.80571 2.42571 3.78428 2.3777C3.76285 2.32969 3.75109 2.27792 3.74966 2.22536C3.74823 2.17281 3.75717 2.12048 3.77597 2.07138C3.79476 2.02227 3.82304 1.97735 3.8592 1.93918C3.89535 1.90101 3.93867 1.87033 3.98668 1.8489L6.69148 0.642496Z" fill="#181610"/>
</g>
</g>
<defs>
<clipPath id="clip0_84_462">
<rect width="12" height="10" fill="white" transform="translate(0 12) rotate(-90)"/>
</clipPath>
</defs>
</svg>
